# xmcd
#
# Track frame offsets: 
#        150
#        13043
#        27373
#        36711
#        51315
#        64900
#        78025
#        89757
#        103189
#        114617
#        128749
#        143451
#        156415
#        168828
#        181629
#        195461
#        206762
#        219505
#        230561
#        244965
#        256765
#        268115
#        279516
#        290766
#        303963
#
# Disc length: 4192 seconds
#
# Revision: 0
# Processed by: cddbd v1.5.2PL0 Copyright (c) Steve Scherf et al.
# Submitted via: ExactAudioCopy v0.95b4
#
DISCID=71105e19
DTITLE=Various Artist - 75 Rhythm and Blues, Disc 3
DYEAR=1900
DGENRE=R&B
TTITLE0=Ray Charles, Heartbreaker
TTITLE1=B.B. King, Shake It Up And Go
TTITLE2=Bertice Reading, I'l Never Do It Again
TTITLE3=Ruth Brown, 5-10-5 Hours
TTITLE4=Big Joe Turner, Shake, Rattle and Roll
TTITLE5=Chuck Willis, I Feel So Bad
TTITLE6=Robert Johnson, Dead Shrimp Blues
TTITLE7=Eddie Cleanhead Vinson, Cherry Red Blues
TTITLE8=Erline Harris, Long Tall Papa
TTITLE9=Hadda Brooks, You Won't Let Me Go
TTITLE10=Ivory Joe Hunter, Blues At Sunrise
TTITLE11=Julia Lee, A Porter's Love Song To A Chambermaid
TTITLE12=Ruth Brown, I Would If I Could
TTITLE13=Lil Greenwood, Grandpa Can Boogie Too
TTITLE14=Little Walter, You're So Fine
TTITLE15=Marie Adams, I#m Gonna Latch On
TTITLE16=Moonah, All Shook On
TTITLE17=Wynonie Harries, Lovin' Machine
TTITLE18=Muddy Waters, I Feel Like Going Home 
TTITLE19=Ray Charles, Roll With Me Baby
TTITLE20=Robert Johnson, Walking Blues
TTITLE21=T-Bone Walker, The Hustle Is On
TTITLE22=Arthur Big Boy Crudup, My Baby Left Me
TTITLE23=Ruth Brown, Shine On
TTITLE24=Ray Charles, Black Jack
EXTD=
EXTT0=
EXTT1=
EXTT2=
EXTT3=
EXTT4=
EXTT5=
EXTT6=
EXTT7=
EXTT8=
EXTT9=
EXTT10=
EXTT11=
EXTT12=
EXTT13=
EXTT14=
EXTT15=
EXTT16=
EXTT17=
EXTT18=
EXTT19=
EXTT20=
EXTT21=
EXTT22=
EXTT23=
EXTT24=
PLAYORDER=
